<?xml version="1.0" ?><svg viewBox="0 0 64 64" xmlns="http://www.w3.org/2000/svg"><title/><g data-name="Layer 17" id="Layer_17"><path d="M9,10h1v1a1,1,0,1,0,2,0V9a1,1,0,0,0-1-1H9a1,1,0,0,0,0,2Z"/><path d="M11,13a1,1,0,0,0-1,1v1a1,1,0,0,0,2,0V14A1,1,0,0,0,11,13Z"/><path d="M15,10h1v1a1,1,0,1,0,2,0V9a1,1,0,0,0-1-1H15a1,1,0,0,0,0,2Z"/><path d="M17,13a1,1,0,0,0-1,1v1a1,1,0,0,0,2,0V14A1,1,0,0,0,17,13Z"/><path d="M21,10h1v1a1,1,0,1,0,2,0V9a1,1,0,0,0-1-1H21a1,1,0,0,0,0,2Z"/><path d="M23,13a1,1,0,0,0-1,1v1a1,1,0,0,0,2,0V14A1,1,0,0,0,23,13Z"/><path d="M27,10h1v1a1,1,0,1,0,2,0V9a1,1,0,0,0-1-1H27a1,1,0,0,0,0,2Z"/><path d="M29,13a1,1,0,0,0-1,1v1a1,1,0,0,0,2,0V14A1,1,0,0,0,29,13Z"/><path d="M33,10h1v1a1,1,0,1,0,2,0V9a1,1,0,0,0-1-1H33a1,1,0,0,0,0,2Z"/><path d="M35,13a1,1,0,0,0-1,1v1a1,1,0,0,0,2,0V14A1,1,0,0,0,35,13Z"/><path d="M39,10h1v1a1,1,0,1,0,2,0V9a1,1,0,0,0-1-1H39a1,1,0,0,0,0,2Z"/><path d="M41,13a1,1,0,0,0-1,1v1a1,1,0,0,0,2,0V14A1,1,0,0,0,41,13Z"/><path d="M45,10h1v1a1,1,0,1,0,2,0V9a1,1,0,0,0-1-1H45a1,1,0,0,0,0,2Z"/><path d="M47,13a1,1,0,0,0-1,1v1a1,1,0,0,0,2,0V14A1,1,0,0,0,47,13Z"/><path d="M61,26H55.981c.008-.277.019-.553.019-.831,0-1.945-.1-3.929-.292-5.893-.013-.153-.026-.3-.05-.444A1,1,0,0,0,54.672,18H1.03a1,1,0,0,0-1,1v4.354Q0,24.261,0,25.169c0,.6.01,1.209.03,1.81A59.067,59.067,0,0,0,8.4,55.515,1,1,0,0,0,9.261,56H46.739a1,1,0,0,0,.857-.485A59.069,59.069,0,0,0,52.891,44H61a3,3,0,0,0,3-3V29A3,3,0,0,0,61,26Zm-5.4,6H57a1,1,0,0,1,1,1v4a1,1,0,0,1-1,1H54.566A59.272,59.272,0,0,0,55.6,32ZM46.169,54H9.831c-.385-.656-.733-1.331-1.091-2H39a1,1,0,0,0,0-2H8a.962.962,0,0,0-.257.052A57.047,57.047,0,0,1,2.029,26.915Q2,26.042,2,25.169c0-.582.01-1.165.03-1.781V20H40v6H38a1,1,0,0,0-1,1V39a1,1,0,0,0,1,1h6a1,1,0,0,0,1-1V27a1,1,0,0,0-1-1H42V20H53.767c.154,1.727.233,3.463.233,5.169,0,.464-.016.925-.032,1.386l-.013.414c-.047,1.475-.125,2.751-.243,3.938a56.64,56.64,0,0,1-1.371,7.855c-.347,1.416-.709,2.7-1.107,3.93A57.111,57.111,0,0,1,46.169,54ZM43,28V38H39V28ZM62,41a1,1,0,0,1-1,1H53.541c.032-.109.061-.227.093-.337.092-.318.182-.652.27-.981.062-.23.128-.446.188-.682H57a3,3,0,0,0,3-3V33a3,3,0,0,0-3-3H55.8c.009-.114.015-.237.024-.353.012-.184.026-.367.037-.557.009-.157.017-.322.026-.484.009-.18.019-.358.027-.544l0-.062H61a1,1,0,0,1,1,1Z"/><path d="M45,50H43a1,1,0,0,0,0,2h2a1,1,0,0,0,0-2Z"/></g></svg>